<mxfile host="app.diagrams.net" agent="Mozilla/5.0 (Windows NT 10.0; Win64; x64) AppleWebKit/537.36 (KHTML, like Gecko) Chrome/135.0.0.0 Safari/537.36" version="26.2.14">
  <diagram name="Page-1" id="ZQJqmeM5jJinDlFDusf7">
    <mxGraphModel dx="910" dy="468" grid="1" gridSize="10" guides="1" tooltips="1" connect="1" arrows="1" fold="1" page="1" pageScale="1" pageWidth="850" pageHeight="1100" math="0" shadow="0">
      <root>
        <mxCell id="0" />
        <mxCell id="1" parent="0" />
        <mxCell id="sBpol9-qq63Yt6XE-VIS-6" value="" style="edgeStyle=orthogonalEdgeStyle;rounded=0;orthogonalLoop=1;jettySize=auto;html=1;" edge="1" parent="1" source="sBpol9-qq63Yt6XE-VIS-1" target="sBpol9-qq63Yt6XE-VIS-4">
          <mxGeometry relative="1" as="geometry" />
        </mxCell>
        <mxCell id="sBpol9-qq63Yt6XE-VIS-7" value="" style="edgeStyle=orthogonalEdgeStyle;rounded=0;orthogonalLoop=1;jettySize=auto;html=1;" edge="1" parent="1" source="sBpol9-qq63Yt6XE-VIS-1" target="sBpol9-qq63Yt6XE-VIS-5">
          <mxGeometry relative="1" as="geometry" />
        </mxCell>
        <mxCell id="sBpol9-qq63Yt6XE-VIS-1" value="Node A" style="rounded=1;whiteSpace=wrap;html=1;fillColor=#dae8fc;strokeColor=#6c8ebf;fontStyle=1" vertex="1" parent="1">
          <mxGeometry x="80" y="200" width="120" height="60" as="geometry" />
        </mxCell>
        <mxCell id="sBpol9-qq63Yt6XE-VIS-12" style="edgeStyle=orthogonalEdgeStyle;rounded=0;orthogonalLoop=1;jettySize=auto;html=1;entryX=1;entryY=0.25;entryDx=0;entryDy=0;" edge="1" parent="1" source="sBpol9-qq63Yt6XE-VIS-2" target="sBpol9-qq63Yt6XE-VIS-1">
          <mxGeometry relative="1" as="geometry">
            <Array as="points">
              <mxPoint x="460" y="215" />
            </Array>
          </mxGeometry>
        </mxCell>
        <mxCell id="sBpol9-qq63Yt6XE-VIS-2" value="Node B" style="rounded=1;whiteSpace=wrap;html=1;fillColor=#fff2cc;strokeColor=#d6b656;fontStyle=1" vertex="1" parent="1">
          <mxGeometry x="400" y="100" width="120" height="60" as="geometry" />
        </mxCell>
        <mxCell id="sBpol9-qq63Yt6XE-VIS-13" style="edgeStyle=orthogonalEdgeStyle;rounded=0;orthogonalLoop=1;jettySize=auto;html=1;entryX=1;entryY=0.75;entryDx=0;entryDy=0;" edge="1" parent="1" source="sBpol9-qq63Yt6XE-VIS-3" target="sBpol9-qq63Yt6XE-VIS-1">
          <mxGeometry relative="1" as="geometry">
            <Array as="points">
              <mxPoint x="460" y="245" />
            </Array>
          </mxGeometry>
        </mxCell>
        <mxCell id="sBpol9-qq63Yt6XE-VIS-3" value="Node C" style="rounded=1;whiteSpace=wrap;html=1;fillColor=#fff2cc;strokeColor=#d6b656;fontStyle=1" vertex="1" parent="1">
          <mxGeometry x="400" y="300" width="120" height="60" as="geometry" />
        </mxCell>
        <mxCell id="sBpol9-qq63Yt6XE-VIS-9" style="edgeStyle=orthogonalEdgeStyle;rounded=0;orthogonalLoop=1;jettySize=auto;html=1;entryX=0;entryY=0.5;entryDx=0;entryDy=0;" edge="1" parent="1" source="sBpol9-qq63Yt6XE-VIS-4" target="sBpol9-qq63Yt6XE-VIS-2">
          <mxGeometry relative="1" as="geometry" />
        </mxCell>
        <mxCell id="sBpol9-qq63Yt6XE-VIS-4" value="Button B" style="rounded=1;whiteSpace=wrap;html=1;" vertex="1" parent="1">
          <mxGeometry x="80" y="100" width="120" height="60" as="geometry" />
        </mxCell>
        <mxCell id="sBpol9-qq63Yt6XE-VIS-8" style="edgeStyle=orthogonalEdgeStyle;rounded=0;orthogonalLoop=1;jettySize=auto;html=1;entryX=0;entryY=0.5;entryDx=0;entryDy=0;" edge="1" parent="1" source="sBpol9-qq63Yt6XE-VIS-5" target="sBpol9-qq63Yt6XE-VIS-3">
          <mxGeometry relative="1" as="geometry" />
        </mxCell>
        <mxCell id="sBpol9-qq63Yt6XE-VIS-5" value="Button C" style="rounded=1;whiteSpace=wrap;html=1;" vertex="1" parent="1">
          <mxGeometry x="80" y="300" width="120" height="60" as="geometry" />
        </mxCell>
        <mxCell id="sBpol9-qq63Yt6XE-VIS-10" value="&quot;A Hello B&quot;" style="text;html=1;align=center;verticalAlign=middle;whiteSpace=wrap;rounded=0;" vertex="1" parent="1">
          <mxGeometry x="260" y="100" width="60" height="30" as="geometry" />
        </mxCell>
        <mxCell id="sBpol9-qq63Yt6XE-VIS-11" value="&quot;A Hello C&quot;" style="text;html=1;align=center;verticalAlign=middle;whiteSpace=wrap;rounded=0;" vertex="1" parent="1">
          <mxGeometry x="250" y="300" width="80" height="30" as="geometry" />
        </mxCell>
        <mxCell id="sBpol9-qq63Yt6XE-VIS-14" value="&quot;B Hello A&quot;" style="text;html=1;align=center;verticalAlign=middle;whiteSpace=wrap;rounded=0;" vertex="1" parent="1">
          <mxGeometry x="260" y="190" width="60" height="30" as="geometry" />
        </mxCell>
        <mxCell id="sBpol9-qq63Yt6XE-VIS-15" value="&quot;C Hello A&quot;" style="text;html=1;align=center;verticalAlign=middle;whiteSpace=wrap;rounded=0;" vertex="1" parent="1">
          <mxGeometry x="255" y="240" width="70" height="30" as="geometry" />
        </mxCell>
      </root>
    </mxGraphModel>
  </diagram>
</mxfile>
